<svg version="1" xmlns="http://www.w3.org/2000/svg" width="1365.333" height="1365.333" viewBox="0 0 1024.000000 1024.000000"><path d="M484.7.6c-.1.1-4.5.4-9.7.8-22.1 1.5-44.5 4.5-64.5 8.7-5.5 1.2-10.7 2.2-11.6 2.4-3.7.7-26.2 6.5-31.6 8.2-3.2.9-6 1.8-6.3 1.8-5 1.2-32.9 11.2-45 16.2-15.9 6.6-42.3 19.4-53.6 26-2.7 1.6-5.6 3.3-6.4 3.7-.8.4-3.3 1.8-5.5 3.1s-5.3 3.2-7 4.1c-7.9 4.5-38.8 26.1-48.1 33.7-1 .9-4.8 4-8.4 6.9-30 24.5-60.1 55.9-83.6 87.3-4.2 5.5-8.1 10.7-8.7 11.5-2.3 2.9-14.5 21.6-20.9 32-22.9 37.1-43.7 85.6-55.8 130.1-3.1 11.4-9.4 39.3-10.3 45.9-.3 1.9-1.2 8.2-2.1 14-.8 5.8-1.8 13-2.1 16-.3 3-.8 6.8-1 8.5-2.6 17.2-2.6 85.3 0 100.6.2 1.3.6 5.1.9 8.4.5 5.5 3.9 28.9 5.2 36 9.8 53.3 30.7 110.3 58 158.2 12.9 22.7 39.4 60.8 53.5 76.8 40.7 46.4 75.6 76.4 123.9 106.5 15.2 9.5 57.8 32 60.6 32 .3 0 3 1.1 6 2.5 25.1 11.5 71 25.8 99.4 31.1 1.4.3 3.2.7 4 .9 1.7.5 4.1.9 17 2.9 12.2 1.9 15.3 2.3 22 3.1 3 .3 6.9.8 8.5 1 21.3 2.6 88.1 2.6 101.4 0 .9-.2 4.7-.6 8.3-.9 3.7-.4 7.5-.8 8.5-1 1-.2 4.1-.7 6.8-1 17.2-2.2 54.5-10.5 72.5-16.1 53.6-16.7 96.5-37.1 140.5-66.8 8.8-6 25.9-18.5 32.1-23.7 1.7-1.4 5.3-4.3 8-6.5 41.5-34.1 82.5-82 111.3-130 12.4-20.7 27.7-51 34.1-67.5 1.1-3 2.7-6.9 3.4-8.5 8.1-18.1 26.1-80.4 25.7-89 0-.2.5-1.9 1-3.7.5-1.8 1.2-5.3 1.5-7.8.3-2.5.7-5.2.9-6 .4-1.4.8-4.3 2-13.2.3-1.8.7-6 1.1-9.3.3-3.3.7-7.1.9-8.4 2.5-15.5 2.5-88.9 0-101.6-.2-1.1-.7-4.4-1-7.3-9.3-88.8-47.1-181.8-103-253.7-24.1-30.9-56.6-64.6-80.1-82.7-1.6-1.2-3.5-2.8-4.2-3.5-.8-.8-7.3-5.8-14.5-11.2-56-41.9-118.4-71.4-185.2-87.6-7.7-1.8-15.3-3.6-17-3.9-1.6-.3-6.6-1.2-11-2-12.8-2.4-13-2.4-19.1-3.2-3.3-.4-6.1-.9-6.4-.9-.3-.1-3.6-.5-7.5-.9-3.8-.4-8.3-.9-10-1.1-3.2-.4-15.4-1.5-22.2-2-2.4-.1-4.3 0-4.3.4 0 2.9-4.6 39.9-6.6 52.6-4.3 28.2-15.2 79.2-17.5 82.1-.5.6-.6 1.4-.3 1.7.3.3.2 1.2-.2 1.9-.5.7-.9 1.5-1 1.8 0 .3-.3 1.2-.7 2-1.8 4.5-19 64.9-20.7 72.7-8.4 38.8-.7 73.4 26.7 119.5l7.5 12.8H645c75.2 0 125.7.4 132.1 1 48.1 4.7 87.3 23.5 121.8 58.1 22.7 22.8 38.4 49.6 47 80.2 5.9 21 6.6 26.9 6.6 54.7 0 29.1-1.3 38.2-8.6 60.3-3.9 11.9-14.5 35.7-16 35.7-.4 0-1 1.1-1.3 2.5-.4 1.4-1.1 2.5-1.6 2.5-.6 0-1 .7-1 1.5s-.4 1.5-1 1.5c-.5 0-1 .6-1 1.3 0 .7-.8 2.2-1.7 3.3-1 1-4.5 5.5-7.7 9.9-27.6 37.1-76 65.2-123.3 71.7-5.1.7-8.9 1.6-8.7 2 .3.4-8.8.8-20.1.8-13.5 0-20.4-.3-20-1 .4-.6-.6-1-2.4-1-5.4 0-27.7-4.9-38.7-8.5-41.5-13.6-82.3-45.8-102.9-81.3l-3-5.2H435.4l-5.9 9.2c-18 27.9-43.4 50.4-75.2 66.6-18.6 9.5-42.7 16.9-61 18.8-3.4.4-6 1.1-5.7 1.5.3.5-8.8.9-20.1.9s-20.4-.4-20.1-.8c.3-.5-3.4-1.4-8.2-2.1-48.3-6.8-97-35.3-124-72.4-3.1-4.4-6.3-8.5-7-9.2-.6-.8-1.2-1.8-1.2-2.4 0-.6-.3-1.1-.8-1.1-.4 0-1.9-2.1-3.2-4.8-1.4-2.6-2.8-4.9-3.2-5.2-1.6-1.3-11.9-24.3-15.1-34-7.2-21.7-8.2-29-8.2-61.5 0-33.1.8-38.4 9.1-63.3 6.6-19.8 14-33.7 27.1-51.4 25.8-34.6 66.2-62.1 106.4-72.3 24-6.1 19.1-5.9 145-6.5l115.6-.5-7.2-14.5c-19.3-38.9-26.1-67.7-23.5-99.5 1.5-17.3 4.4-30.1 17.3-75 12.7-44 16.3-57.8 20.1-76.5 4.7-23.7 9.7-56.3 11.2-74.1l.7-7.7-6.8.2c-3.6 0-6.7.2-6.8.2z"/><path d="M773.6 424.7c-.1.1-1.5.5-3.1.8-1.7.3-3.5.7-4.2.9-.7.1-1.6.5-1.9.9-.4.4-1.6.7-2.6.7s-1.8.4-1.8 1c0 .5-.6 1-1.4 1-1.8 0-12.6 9.9-12.6 11.6 0 .6-.7 1.5-1.6 1.8-.9.4-1.4.9-1.1 1.3.4.3.3 1.1-.2 1.7-1 1.3-3.4 8.3-3.7 11.1-.7 5.3-.3 14.3.8 16 .3.5.9 2.5 1.3 4.2.3 1.8 1.1 3.3 1.7 3.3.6 0 .8.3.5.6-1.4 1.4 8.1 12.1 13.3 14.9 1.9 1.1 4.3 2.6 5.3 3.4.9.8 2 1.1 2.4.8.3-.4 1.3-.1 2.1.6 1 .8 4.9 1.2 11.1 1.2 8.8-.1 10.2-.3 16.2-3.3 6.4-3.2 16.7-12.2 16.1-14.2-.1-.6.2-1 .6-1 .9 0 3.9-6.3 4.9-10.2 1.2-5 1.1-16-.2-19.9-.8-2.1-1.4-4.2-1.4-4.4 0-.3-.8-2.1-1.7-4-1.6-3.4-11.4-14.7-11.4-13.2 0 .4-1-.1-2.2-1.3-2-1.9-3.3-2.4-5-2.1-.5 0-.8-.3-.8-.8s-1.5-1.2-3.2-1.6c-1.8-.4-4-.9-4.8-1.2-1.6-.4-11-.9-11.4-.6zM236 444c-2.3 2.4-3 4-3.1 7.3 0 2.3-.1 17.2-.2 33.2l-.2 29-34.3.1c-32.8.1-34.4.2-37 2.1-1.5 1.1-2.7 2.5-2.7 3.1 0 .6-.3 1.3-.7 1.7-1.2 1.2-1 38.8.3 42.3 1 2.8 3.5 5.2 6.2 5.8.4.1 16 .2 34.6.3l33.9.1.1 29.7c0 16.4 0 31.5.1 33.5 0 4.2 3.4 8.6 7.2 9.4 4.6.9 39.3.5 42-.5 2.5-.9 5.5-4.7 5-6.4-.1-.4.1-.7.5-.7.5 0 .7-14.7.7-32.7l-.1-32.8h32.5c25.2 0 32.6-.3 33-1.3.2-.6.7-1 1.2-.7.4.3 1.3-.9 2.1-2.6 1.9-4.7 1.8-43.7-.2-45-.8-.5-1-.9-.5-.9 1.9 0-3.8-4-5.8-4.1-1.2 0-15.1-.2-31.1-.3-15.9-.2-29.5-.3-30.1-.4-.8-.2-1.2-9.3-1.2-32 0-17.4-.1-32.2-.2-32.7-.2-.6-.2-1.3-.1-1.8 0-.4-.3-.7-.9-.7-.5 0-1-.6-1-1.3 0-2.9-5.3-3.7-26.2-3.7h-20.9l-2.9 3zM440.9 471.5c-.5.1-.3 31.2.2 32 .6.8 31.7 1.3 38.4.6.8-.1 1.1-15.3.6-31.1-.1-1.3-3-1.5-19.6-1.5h-19.6zM551 487.7c0 9 .3 16.3.8 16.4 3 .4 38.2.3 38.3-.1.4-1.9.4-31.2-.1-31.8-.3-.4-9.2-.8-19.7-.8H551v16.3zM849.6 499.7c-.2.2-1.7.6-3.2.8-1.6.2-3.1.5-3.4.6-.3.1-.9.3-1.5.4-2.7.5-9.5 3.8-9.5 4.7 0 .5-.4.7-.9.3-.5-.3-1.7.5-2.5 1.7-.9 1.2-1.6 1.9-1.6 1.5 0-.5-1.3.4-2.9 2-1.6 1.5-2.7 3.1-2.4 3.5.2.5 0 .8-.5.8-.4 0-1.9 1.9-3.2 4.2-1.3 2.4-2.3 4.3-2.1 4.3.1 0-.3 1.3-1 3-1.7 4.3-1.9 17.3-.3 21.3.7 1.8 1.3 3.4 1.4 3.7.6 4 10.4 17.5 12.7 17.5.3 0 1.2.8 2 1.7 1 1.2 1.2 1.3.8.3-.6-1.3-.4-1.3.7 0 1.3 1.6 8.6 4.7 12.7 5.5 3.8.7 10.4.8 13.8.1 5.5-1.1 14.3-4.7 14.3-5.8 0-.5.5-.8 1-.8 1.6 0 7-5.2 10.1-9.8 3.4-5.1 6.2-10.2 5.5-10.2-.3 0-.1-1.2.4-2.6 2-5 1.3-18.1-1.1-22.6-.5-1-.7-1.8-.4-1.8.4 0-.3-1.3-1.4-2.9-1.2-1.6-2.1-3.2-2.1-3.5 0-1.2-9.7-10.6-10.8-10.6-.7 0-1.2-.3-1.2-.8 0-1.1-7.5-4.1-12.8-5.2-7.5-1.4-10.1-1.7-10.6-1.3zM697 500.3c-.3.3-1.7.8-3 1-1.4.2-3.6.9-5 1.4-1.4.6-2.8 1.1-3.3 1.2-.4 0-1.3.5-2 1.1-.6.5-3.2 2.6-5.5 4.5-2.4 1.9-4.1 3.5-3.8 3.5.3 0-.6 1.2-2 2.7-2.6 2.8-5.1 7.4-5.9 10.8-.2 1.1-.8 3.6-1.3 5.6-1.4 5.7-.6 14.5 1.9 20.4.7 1.6 1.3 3.3 1.3 3.7.1.4.9 1.6 1.8 2.7s1.4 2.2 1.1 2.5c-.4.3-.1.6.5.6.7 0 1.2.7 1.2 1.5s.3 1.5.8 1.5c.4 0 2.4 1.6 4.4 3.6 2.1 1.9 6.4 4.7 9.5 6.2 5.1 2.3 7.1 2.7 15.8 2.7 7.7 0 10.9-.5 14-1.9 2.2-1.1 4.3-1.8 4.8-1.8.4.1.7-.2.7-.8 0-.5.5-1 1-1 .6 0 2.2-1.2 3.5-2.6 1.4-1.5 2.5-2.4 2.5-2.1 0 .4.9-.1 2-1 1.1-1 2-2.1 2-2.6 0-.4.9-1.7 2-2.9s2-2.8 2-3.5c0-.7.5-1.3 1.1-1.3.5 0 .8-.4.5-.8-.3-.5 0-1.9.7-3.3 2.1-4.3 2.8-14.8 1.3-21.9-1-4.8-3.8-11-5-11-.5 0-.7-.3-.3-.6.3-.3-.3-1.5-1.3-2.7-1.1-1.2-2.6-3.1-3.5-4.2-.9-1.1-1.3-1.4-.9-.6.5.9.3 1.2-.4.7-.7-.4-1.2-1.3-1.2-2 0-.8-3.4-3-7.6-5-6.2-3.1-9-3.8-15.7-4.3-4.5-.3-8.4-.3-8.7 0zM775.8 573.6c-.3.2-1.8.7-3.4.9-4 .6-5.4 1-8.9 2.4-4.8 1.9-12.5 7.5-12.5 9 0 .8-.3 1.1-.7.8-1.1-1.1-6.8 8.4-9 14.8-2 5.9-2.6 17.5-1 19.1.4.4.7 1.6.7 2.6 0 5.1 11.9 21.8 15.6 21.8.8 0 1.4.4 1.4 1 0 .5.7 1 1.5 1s1.5.5 1.5 1.1c0 .5.5.7 1 .4.6-.3 1-.1 1 .5s.5.8 1 .5c.6-.4 1.7-.2 2.5.5.7.6 2.8 1.2 4.5 1.2 1.7.1 3.3.5 3.6 1 .3.4 1.5.6 2.7.3 1.2-.3 3.8-.7 5.7-1 4.6-.6 5.9-.9 9.5-2.5 1.7-.7 3.3-1.3 3.8-1.2.4.1.7-.3.7-.9 0-.5.4-.8.9-.4.6.3 1.4-.3 2-1.2.6-1 1.1-1.4 1.1-.8 0 1.5 9.8-9.3 11.2-12.5.7-1.7 1.6-3 2-3 .5 0 .7-.3.7-.8-.1-.4 0-.9.1-1.2 2.2-5.7 2.9-14.4 1.6-21-1-5.2-1.2-6-1.9-6.6-.4-.4-.7-1.6-.7-2.6s-.5-1.8-1.1-1.8c-.5 0-.7-.5-.4-1 .3-.6.1-1-.4-1-.6 0-1.1-.6-1.1-1.3 0-.7-.9-1.9-2-2.7-1.1-.8-2-2-2-2.7 0-.7-.4-1.3-.9-1.3-.6 0-2.2-1.1-3.7-2.5-2.4-2.3-10.1-6.4-12.9-6.9-.5-.1-1.4-.4-2-.7-.5-.3-3-.7-5.4-.8-2.5-.1-4.8-.4-5.1-.6-.4-.3-.9-.2-1.2.1z"/></svg>